<svg width="40" height="40" fill="none" xmlns="http://www.w3.org/2000/svg"><path d="M35.393 28.255a.586.586 0 00-.64.128l-6.416 6.436a.59.59 0 00.416 1.006h6.416a.588.588 0 00.587-.59V28.8a.59.59 0 00-.363-.544zm-5.223 6.392l4.411-4.426v4.426H30.17z" fill="#000"/><path d="M39.638 18.814a.586.586 0 00-.64.128l-1.759 1.764V8.712a.588.588 0 00-.587-.59h-4.51l1.637-1.642 1.578-1.584c.338-.339.525-.79.525-1.27s-.187-.93-.525-1.27L33.533.526A1.776 1.776 0 0032.267 0c-.478 0-.928.187-1.266.526L29.422 2.11l-1.907 1.913-4.086 4.1H5.205V2.296a.588.588 0 00-.587-.59C2.07 1.707 0 3.786 0 6.34v25.017a.58.58 0 00.014.126 4.442 4.442 0 001.33 2.856 4.414 4.414 0 003.103 1.267h17.94l-3.378 3.39A.59.59 0 0019.424 40h19.989a.588.588 0 00.587-.589V19.358a.59.59 0 00-.362-.544zM31.832 1.359a.614.614 0 01.87 0l1.825 1.83a.62.62 0 010 .874l-1.163 1.168-2.696-2.705 1.163-1.167zm-1.994 2l2.695 2.704-1.077 1.081-2.695-2.704 1.077-1.08zm8.988 22.617h-1.083a.588.588 0 000 1.178h1.083v1.775h-1.083a.588.588 0 000 1.178h1.083v1.775h-1.083a.588.588 0 000 1.178h1.083v1.775h-1.083a.588.588 0 000 1.178h1.083v2.81H20.842l5.93-5.95a.59.59 0 00-.084-.903.586.586 0 00-.746.07l-2.38 2.387H4.447a3.26 3.26 0 01-3.27-3.178c.003-.112.012-.223.026-.332v-.002l.024-.156.003-.018a3.406 3.406 0 01.14-.53l.02-.06.046-.115.013-.033c.02-.047.041-.093.063-.14l.003-.005a3.458 3.458 0 012.402-1.885l.01-.002c.048-.01.097-.018.146-.026l.025-.004.135-.018.038-.004c.043-.005.087-.008.131-.01l.042-.003a3.45 3.45 0 01.174-.005.588.588 0 00.587-.589v-4.27a.588.588 0 10-1.175 0v3.718a4.58 4.58 0 00-2.856 1.512V6.34A3.457 3.457 0 014.03 2.935v17.751a.588.588 0 101.175 0V9.3h17.05l-3.246 3.256a.59.59 0 000 .833c.23.23.601.23.83 0l4.248-4.262 3.843-3.855 2.696 2.704-.317.317v.001L18.47 20.172l-2.696-2.705 2.333-2.34a.59.59 0 000-.834.586.586 0 00-.83 0l-2.749 2.758a.583.583 0 00-.041.046l-.012.017a.666.666 0 00-.024.033l-.012.021a.545.545 0 00-.019.034l-.01.022a.587.587 0 00-.015.035l-.005.012-1.144 3.25-.78 2.217a.593.593 0 00-.023.09h-1.952a.588.588 0 000 1.178H26.75a.588.588 0 000-1.178H15.085l3.58-1.268.01-.004a.565.565 0 00.04-.017l.017-.007a.546.546 0 00.041-.023l.013-.008a.58.58 0 00.042-.03l.01-.007a.61.61 0 00.047-.043l12.082-12.12h5.098v12.583l-8.398 8.425a.59.59 0 00.415 1.005.584.584 0 00.415-.172L38.826 20.78v5.196zm-21.43-5.216l-1.681.596-1.12-1.125.593-1.687 2.209 2.216z" fill="#000"/></svg>