<svg width="40" height="40" fill="none" xmlns="http://www.w3.org/2000/svg"><path d="M22.006 4h1.334a.667.667 0 100-1.333h-1.334a.667.667 0 100 1.333zM4.668 4h14.67a.667.667 0 100-1.333H4.668a.667.667 0 100 1.333z" fill="#000"/><path d="M39.147 19.407a3.333 3.333 0 10-4.963-4.453l-7.51 8.362v-8.65h6.001a2 2 0 002-2v-8A4.673 4.673 0 0030.009 0H4.668A4.673 4.673 0 000 4.667V38a2 2 0 002 2h22.673a2 2 0 002-2v-4.706l12.474-13.887zm-3.97-3.562a2 2 0 112.977 2.672L35.927 21l-2.978-2.673 2.228-2.482zM33.342 4.667v8a.667.667 0 01-.667.666h-6.001V4.667a3.334 3.334 0 016.668 0zm-8.669 34H2.001A.667.667 0 011.334 38V4.667a3.338 3.338 0 013.334-3.334h22.079a4.65 4.65 0 00-1.407 3.334V24.8l-2.689 2.993A1.996 1.996 0 0020.672 26V16h1.96a1.34 1.34 0 001.297-1.766l-1.646-4.667a1.37 1.37 0 00-1.298-.9h-4.628a1.37 1.37 0 00-1.297.9l-1.647 4.667A1.34 1.34 0 0014.71 16h1.961v10a2 2 0 00-2 2v1.333H12.67v-2.185c.41-.237.665-.674.667-1.148v-1.187a1.985 1.985 0 00-.667-3.357v-4.123a2.667 2.667 0 00-2.667-2.666H6.668a2.667 2.667 0 00-2.667 2.666v4.123a1.985 1.985 0 00-.667 3.357V26c.002.474.256.912.667 1.148v2.185a.667.667 0 100 1.334h16.727L18.773 36H8.003a.667.667 0 100 1.333h11.335a.66.66 0 00.6-.384l5.402-2.666V38a.667.667 0 01-.667.667zm-.122-5.482L20.49 35.19l1.559-4.253 2.503 2.248zM14.71 14.667c-.067.018-.23.533 1.647-4.667l4.668.011 1.608 4.656H14.71zM18.005 16h1.333v10h-1.333V16zm2.667 11.333c.368 0 .667.299.667.667v1.256c-.1.11.5.077-5.335.077V28c0-.368.299-.667.667-.667h4.001zm-8.669-4.666a.667.667 0 110 1.333.667.667 0 010-1.333zm-.667-1.211a2 2 0 00-1.21 1.21h-3.58a2 2 0 00-1.211-1.21v-4.123c0-.736.597-1.333 1.333-1.333h3.335c.736 0 1.333.597 1.333 1.333v4.123zm-6.668 1.21a.667.667 0 110 1.334.667.667 0 010-1.333zM6.545 24h3.58a2 2 0 001.878 1.333V26H4.668v-.667A2 2 0 006.545 24zm-1.21 3.333h1.19l-.4 2h-.79v-2zm2.546 0h.91l.4 2h-1.71l.4-2zm2.268 0h1.187v2h-.787l-.4-2zm15.53 5.072l-2.976-2.672 9.355-10.416 2.978 2.672-9.357 10.416z" fill="#000"/><path d="M6.002 36h-2a.667.667 0 100 1.333h2a.667.667 0 100-1.333z" fill="#000"/></svg>