<svg width="40" height="40" fill="none" xmlns="http://www.w3.org/2000/svg"><path d="M33.585 11.875H20c-.521 0-.943.35-.943.781 0 .432.422.781.943.781h13.585c.521 0 .944-.35.944-.78 0-.432-.423-.782-.944-.782zm-3.301 3.979a1.06 1.06 0 00-.667-.229 1.06 1.06 0 00-.667.229.726.726 0 00-.276.552c0 .206.1.407.276.553.175.145.419.229.667.229.248 0 .491-.084.667-.23a.726.726 0 00.276-.552.726.726 0 00-.276-.552zM20.666 3.588a1.059 1.059 0 00-.667-.229c-.248 0-.491.084-.667.23a.726.726 0 00-.276.552c0 .205.1.407.276.552.176.145.419.229.667.229.248 0 .492-.084.667-.229a.726.726 0 00.276-.552.726.726 0 00-.276-.553zm4.983 12.037H20c-.521 0-.943.35-.943.781 0 .432.422.782.943.782h5.649c.52 0 .943-.35.943-.782 0-.431-.422-.781-.943-.781zm7.936 4.688H20c-.521 0-.943.35-.943.78 0 .432.422.782.943.782h13.585c.521 0 .944-.35.944-.781 0-.432-.423-.782-.944-.782zm-3.301 3.978a1.06 1.06 0 00-.667-.229 1.06 1.06 0 00-.667.23.726.726 0 00-.276.552c0 .205.1.407.276.552.175.145.419.229.667.229.248 0 .491-.084.667-.229a.726.726 0 00.276-.552.726.726 0 00-.276-.553zm-4.635-.228H20c-.521 0-.943.35-.943.78 0 .432.422.782.943.782h5.649c.52 0 .943-.35.943-.781 0-.432-.422-.782-.943-.782zm7.936 4.687H20c-.521 0-.943.35-.943.781 0 .432.422.782.943.782h13.585c.521 0 .944-.35.944-.782 0-.431-.423-.781-.944-.781zm-3.301 3.979a1.06 1.06 0 00-.667-.229 1.06 1.06 0 00-.667.229.726.726 0 00-.276.552c0 .206.1.407.276.553.175.145.419.228.667.228.248 0 .491-.083.667-.228a.726.726 0 00.276-.553.726.726 0 00-.276-.552zm-4.635-.229H20c-.521 0-.943.35-.943.781 0 .432.422.782.943.782h5.649c.52 0 .943-.35.943-.782 0-.431-.422-.781-.943-.781z" fill="#000"/><path d="M35.4 3.047h-7.205c-1.042-.822-2.45-1.328-3.999-1.328h-.826C22.738.683 21.44 0 20 0c-1.44 0-2.738.683-3.37 1.719h-.828c-1.55 0-2.957.506-3.999 1.328H4.6c-2.536 0-4.6 1.709-4.6 3.81V36.19C0 38.29 2.063 40 4.6 40h30.8c2.537 0 4.6-1.709 4.6-3.81V6.857c0-2.1-2.063-3.809-4.6-3.809zm-19.598.234h1.47c.425 0 .797-.234.91-.573.225-.674.972-1.146 1.818-1.146.846 0 1.593.472 1.818 1.146.113.339.485.573.91.573h1.468c2.048 0 3.733 1.309 3.901 2.97H11.901c.168-1.661 1.853-2.97 3.9-2.97zm22.311 32.91c0 1.239-1.217 2.247-2.713 2.247H4.6c-1.496 0-2.713-1.008-2.713-2.247V6.856c0-1.239 1.217-2.247 2.713-2.247h5.882A4.088 4.088 0 0010 6.524v.507c0 .432.422.782.943.782h18.112c.52 0 .943-.35.943-.782v-.507a4.08 4.08 0 00-.482-1.915H35.4c1.496 0 2.713 1.008 2.713 2.247v29.335z" fill="#000"/><path d="M14 11.687a1.087 1.087 0 00-1.333 0l-4.034 3.34L7.39 14a1.087 1.087 0 00-1.334 0c-.369.305-.369.8 0 1.104l1.91 1.582c.184.153.425.229.667.229.241 0 .483-.076.667-.229l4.7-3.893c.37-.305.37-.8 0-1.105zM11.698 28.75H7.17c-.521 0-.944.35-.944.781v3.75c0 .432.423.782.944.782h4.528c.521 0 .943-.35.943-.782v-3.75c0-.431-.422-.781-.943-.781zm-.943 3.75H8.113v-2.188h2.642V32.5zm.943-12.187H7.17c-.521 0-.944.35-.944.78v3.75c0 .432.423.782.944.782h4.528c.521 0 .943-.35.943-.781v-3.75c0-.432-.422-.782-.943-.782zm-.943 3.75H8.113v-2.188h2.642v2.188z" fill="#000"/></svg>