<svg width="20" height="20" fill="none" xmlns="http://www.w3.org/2000/svg"><path d="M20 2.368a7.34 7.34 0 01-2.363.797c.85-.625 1.5-1.607 1.804-2.79a7.34 7.34 0 01-2.6 1.222C16.09.61 15.016 0 13.846 0 11.576 0 9.75 2.268 9.75 5.048c0 .4.027.784.095 1.15C6.435 5.994 3.419 3.983 1.393.92A6.002 6.002 0 00.83 3.47c0 1.748.732 3.298 1.821 4.195-.658-.016-1.305-.251-1.852-.622v.055c0 2.453 1.421 4.49 3.285 4.959a3.373 3.373 0 01-1.075.166c-.262 0-.527-.018-.776-.086.531 1.998 2.038 3.468 3.831 3.515-1.395 1.343-3.166 2.153-5.084 2.153-.336 0-.658-.019-.981-.07C1.816 19.177 3.969 20 6.29 20c7.545 0 11.67-7.692 11.67-14.36 0-.223-.006-.438-.015-.652.814-.711 1.497-1.599 2.055-2.62z" fill="#fff"/></svg>